<?xml version="1.0" encoding="UTF-8"?>
<svg version="1.1" xmlns="http://www.w3.org/2000/svg" width="512" height="512">
<path d="M0 0 C0.99928551 -0.00623996 1.99857103 -0.01247993 3.02813792 -0.01890898 C6.34499423 -0.03474294 9.66110579 -0.02227201 12.97796631 -0.00964355 C15.3690178 -0.01506906 17.76006594 -0.02219411 20.15110779 -0.03088379 C25.95333621 -0.04718702 31.75533185 -0.04485922 37.55756721 -0.03323323 C42.27877979 -0.02416842 46.99993446 -0.02298802 51.72115326 -0.02732849 C52.73236667 -0.02824789 52.73236667 -0.02824789 53.76400863 -0.02918586 C55.1339308 -0.03046489 56.50385296 -0.03176174 57.87377509 -0.03307623 C70.69845246 -0.04446279 83.52301519 -0.03140045 96.34767374 -0.00987476 C107.32329099 0.0079782 118.29873887 0.00490331 129.27435303 -0.0135498 C142.04958432 -0.03501884 154.82471517 -0.04334725 167.599962 -0.03110075 C168.96582904 -0.0298267 170.3316961 -0.02856921 171.69756317 -0.02732849 C172.36941464 -0.02671139 173.04126611 -0.02609429 173.73347671 -0.02545848 C178.4404278 -0.02202239 183.14731456 -0.02779643 187.85425568 -0.0372467 C194.20737027 -0.04886255 200.56016749 -0.04067484 206.91324806 -0.01766968 C209.23548419 -0.01241225 211.55774734 -0.01384502 213.87997246 -0.02272034 C236.20028521 -0.10011367 255.7218253 3.3118563 272.40032959 19.3079834 C286.1790428 33.07020926 294.74751984 49.69283946 294.86423367 69.49007487 C294.85549515 70.56015009 294.84675662 71.63022531 294.8377533 72.73272705 C294.84031657 73.90270902 294.84287984 75.07269099 294.84552079 76.27812696 C294.84957503 79.48920056 294.84032565 82.69990145 294.82518661 85.91093111 C294.812134 89.3872344 294.81662217 92.86352282 294.81889343 96.33984375 C294.82046039 102.35071595 294.811112 108.36148986 294.79417992 114.37233734 C294.76971557 123.06281238 294.76197707 131.75324027 294.75821594 140.443746 C294.75166307 154.54622376 294.73173364 168.64864923 294.70330811 182.75109863 C294.67573731 196.44380432 294.65451854 210.13649576 294.64178467 223.82922363 C294.6409965 224.6743777 294.64020833 225.51953176 294.63939627 226.39029655 C294.63548093 230.63052508 294.63168986 234.87075372 294.62796056 239.11098242 C294.59690095 274.24333707 294.54409702 309.37563098 294.47698975 344.50793457 C295.30424561 344.4869873 296.13150146 344.46604004 296.98382568 344.44445801 C300.73142345 344.36131838 304.47882724 344.30927926 308.22698975 344.25793457 C309.52894287 344.22441895 310.830896 344.19090332 312.17230225 344.15637207 C313.42269287 344.14348145 314.6730835 344.13059082 315.96136475 344.11730957 C317.11346436 344.0963623 318.26556396 344.07541504 319.45257568 344.05383301 C322.47698975 344.50793457 322.47698975 344.50793457 324.85186768 346.29211426 C327.30591806 349.63816117 327.04890236 353.01652427 327.00823975 357.00793457 C327.01206665 357.83946045 327.01589355 358.67098633 327.01983643 359.52770996 C327.02255654 361.28952238 327.01518827 363.05137512 326.99847412 364.81311035 C326.97728059 367.47145302 326.99815726 370.12702569 327.02386475 372.78527832 C327.0399464 382.35616652 326.47434038 390.63544924 322.47698975 399.50793457 C321.98456787 400.60750488 321.492146 401.7070752 320.98480225 402.83996582 C312.82857559 417.47048539 301.30134216 426.17542967 285.37998486 431.55420876 C281.02450484 432.77477724 276.82444712 432.79211986 272.32594299 432.77536011 C271.42596374 432.77989122 270.52598448 432.78442233 269.59873313 432.78909075 C266.59431344 432.80171301 263.59007553 432.80011577 260.58563232 432.79846191 C258.42675545 432.80444859 256.26788072 432.81125445 254.10900879 432.81881714 C248.2513549 432.83647191 242.39375947 432.84117235 236.53608155 432.84244871 C232.87334414 432.84387136 229.21062153 432.84814317 225.5478878 432.85344315 C212.7608178 432.87194293 199.97378948 432.88011397 187.18670654 432.87854004 C175.28236719 432.87733923 163.37820932 432.89843003 151.47391587 432.93002737 C141.24181608 432.95621476 131.00977546 432.96690627 120.77764243 432.96562922 C114.67172755 432.96512024 108.56597393 432.97076808 102.46009254 432.99198532 C96.71360978 433.0114086 90.96744139 433.01146401 85.22094727 432.99695206 C83.11836473 432.99486783 81.0157623 432.99954167 78.91321373 433.01167297 C52.99747599 433.15145099 52.99747599 433.15145099 43.22698975 424.32043457 C40.5845083 422.34766548 40.5845083 422.34766548 37.47698975 421.50793457 C33.1996242 422.64368045 29.59760676 424.43578966 25.67230225 426.43762207 C7.75771621 435.57232808 -17.61918777 435.61181224 -36.56988525 429.89855957 C-48.59977716 425.82372257 -59.74598808 420.7412164 -69.52301025 412.50793457 C-70.81271729 411.42512207 -70.81271729 411.42512207 -72.128479 410.32043457 C-90.59186129 394.23131476 -103.99441742 372.12473018 -105.75054932 347.29016113 C-107.02251287 318.67498097 -101.33136414 294.30698982 -82.14801025 272.32043457 C-64.76290999 253.77830545 -42.5283549 241.26822771 -16.81207275 240.12512207 C-14.38266687 240.07132366 -11.9528895 240.03230811 -9.52301025 240.00793457 C-8.39685303 239.9894043 -7.2706958 239.97087402 -6.1104126 239.95178223 C3.94230809 240.02541267 11.14207347 242.07618956 21.47698975 244.50793457 C21.80698975 232.62793457 22.13698975 220.74793457 22.47698975 208.50793457 C18.192146 208.55434082 13.90730225 208.60074707 9.49261475 208.64855957 C6.07388781 208.67428738 2.65518826 208.69597707 -0.76358032 208.7149353 C-4.37141374 208.73604973 -7.9788707 208.7642595 -11.58648682 208.80969238 C-15.06188939 208.85318582 -18.53692713 208.87707878 -22.01258087 208.88744354 C-23.98246809 208.89842072 -25.95220873 208.92964157 -27.921875 208.96112061 C-29.72328949 208.96157379 -29.72328949 208.96157379 -31.56109619 208.96203613 C-32.6181073 208.97091858 -33.67511841 208.97980103 -34.76416016 208.98895264 C-38.34301907 208.3649623 -39.31288836 207.36771442 -41.52301025 204.50793457 C-42.02637482 201.34466457 -42.02637482 201.34466457 -42.03094482 197.53318787 C-42.03718479 196.83107683 -42.04342475 196.1289658 -42.0498538 195.40557867 C-42.06580998 193.05255566 -42.05316981 190.70056489 -42.04058838 188.34753418 C-42.04600871 186.6603739 -42.05313087 184.97321835 -42.06182861 183.28607178 C-42.08008536 178.70088783 -42.07298221 174.1160634 -42.06031227 169.53087306 C-42.05018513 164.72736438 -42.05957824 159.92388648 -42.06585693 155.12037659 C-42.07313908 147.04581179 -42.0635359 138.97139319 -42.04449463 130.89685059 C-42.02277635 121.57991949 -42.02973817 112.26333922 -42.05180025 102.9464168 C-42.06999978 94.93855678 -42.07248883 86.93080195 -42.06204557 78.92292792 C-42.05582897 74.14442651 -42.05492329 69.36608946 -42.06819153 64.5875988 C-42.0798139 60.08703237 -42.07160857 55.58691372 -42.0486145 51.08639526 C-42.0433591 49.44137373 -42.04478639 47.79631403 -42.05366516 46.15130806 C-42.12018412 32.56592988 -40.23122547 21.67753031 -30.52301025 11.50793457 C-21.76527624 3.14752686 -11.9716759 -0.11725666 0 0 Z " fill="#80B4FA" transform="translate(145.52301025390625,39.4920654296875)"/>
<path d="M0 0 C19.85807466 15.95570479 34.19860257 39.12722912 37.28125 64.69140625 C38.0871575 78.8714055 37.58249552 92.12267451 33.28125 105.69140625 C32.930625 106.81417969 32.58 107.93695313 32.21875 109.09375 C27.22332052 123.40357403 18.98364789 135.12621859 8.28125 145.69140625 C7.47945312 146.49191406 6.67765625 147.29242188 5.8515625 148.1171875 C-4.79282322 158.22062903 -16.87200198 165.09056985 -30.71875 169.69140625 C-31.73324219 170.03171875 -32.74773437 170.37203125 -33.79296875 170.72265625 C-58.63034644 177.45399073 -85.42342837 172.6902023 -107.71875 160.69140625 C-111.64140677 158.28367382 -115.20040095 155.6542265 -118.71875 152.69140625 C-119.57855469 151.96953125 -120.43835938 151.24765625 -121.32421875 150.50390625 C-139.78760104 134.41478644 -153.19015717 112.30820186 -154.94628906 87.47363281 C-156.21825262 58.85845265 -150.52710389 34.4904615 -131.34375 12.50390625 C-96.64877259 -24.50012255 -40.72841876 -31.29825056 0 0 Z " fill="#FEDF7C" transform="translate(194.71875,299.30859375)"/>
<path d="M0 0 C1.31912043 -0.01064158 1.31912043 -0.01064158 2.66488975 -0.02149814 C5.61166807 -0.03910042 8.5571313 -0.02096201 11.50389099 -0.00291443 C13.61634421 -0.00805235 15.72879315 -0.01533266 17.8412323 -0.02459717 C23.57878614 -0.04313429 29.31587615 -0.03015819 35.05341077 -0.01050687 C41.05334354 0.00585955 47.05324646 -0.00293037 53.05319214 -0.00802612 C63.12846806 -0.01254896 73.20355844 0.00333557 83.27879333 0.03126526 C94.93447761 0.06332657 106.58982738 0.0632986 118.24553543 0.04605049 C129.45022126 0.03019922 140.65478421 0.03690941 151.85946465 0.0539875 C156.63174133 0.06086801 161.40391981 0.0598153 166.17619514 0.05244255 C171.79299184 0.04479404 177.40940677 0.05685917 183.02613831 0.08429146 C185.09013676 0.09119108 187.15417076 0.09125647 189.21816826 0.08407593 C192.03047761 0.07541781 194.84159885 0.09127535 197.65380859 0.11352539 C198.47530051 0.10528462 199.29679243 0.09704386 200.14317805 0.08855337 C203.6923644 0.14056948 205.84433326 0.32849397 208.76916409 2.42012119 C211.05209408 5.7936329 210.83473317 9.1948812 210.79466248 13.12818909 C210.79848938 13.95971497 210.80231628 14.79124084 210.80625916 15.64796448 C210.80897927 17.4097769 210.801611 19.17162963 210.78489685 20.93336487 C210.76370332 23.59170753 210.78457999 26.2472802 210.81028748 28.90553284 C210.82636913 38.47642103 210.26076311 46.75570376 206.26341248 55.62818909 C205.7709906 56.7277594 205.27856873 57.82732971 204.77122498 58.96022034 C196.61753518 73.58618932 185.07223266 82.33955623 169.13349056 87.67614555 C164.82912779 88.7350236 161.04367946 88.90171182 156.63903809 88.86869812 C155.37437427 88.87126139 155.37437427 88.87126139 154.0841617 88.87387645 C151.27281178 88.87715792 148.46170312 88.86618985 145.65037537 88.85523987 C143.62966416 88.85467546 141.60895254 88.85499288 139.58824158 88.85612488 C134.11152199 88.85669825 128.63489017 88.84494637 123.15819097 88.83097696 C117.43134205 88.81846708 111.70449108 88.8172989 105.97763062 88.81492615 C95.13701676 88.80871215 84.29644329 88.79230238 73.4558472 88.77222717 C61.11251545 88.74986571 48.76918175 88.73887411 36.42583477 88.7288363 C11.0383383 88.70793611 -14.34912235 88.67276164 -39.73658752 88.62818909 C-36.8532977 86.70599587 -34.07667564 85.42284512 -30.92408752 84.00318909 C-22.67283967 79.90746098 -18.74094804 74.16689791 -15.73658752 65.62818909 C-14.96568035 61.73038885 -14.61258626 58.03864418 -14.61061096 54.0693512 C-14.6068042 53.00482224 -14.60299744 51.94029327 -14.59907532 50.84350586 C-14.5980481 49.70897476 -14.59702087 48.57444366 -14.59596252 47.40553284 C-14.57764639 44.98690354 -14.5580772 42.56828346 -14.53736877 40.14967346 C-14.50832891 36.34865067 -14.48658529 32.54822682 -14.48609924 28.74708557 C-14.48277196 25.07019806 -14.44827962 21.39468261 -14.40846252 17.71803284 C-14.41553223 16.58147751 -14.42260193 15.44492218 -14.42988586 14.27392578 C-14.40526276 12.68186058 -14.40526276 12.68186058 -14.38014221 11.05763245 C-14.37649658 10.12752853 -14.37285095 9.19742462 -14.36909485 8.23913574 C-12.50158104 0.53016741 -6.73960081 -0.09736588 0 0 Z " fill="#556EF7" transform="translate(261.73658752441406,383.37181091308594)"/>
<path d="M0 0 C0.98355469 0.32871094 1.96710938 0.65742188 2.98046875 0.99609375 C20.33518378 7.48446716 32.60021437 20.661429 40.21777344 37.20410156 C46.74392143 52.18735519 45.46346157 69.91299012 40 85 C37.11953845 92.20115388 33.06180094 98.15293015 28 104 C27.41605469 104.67933594 26.83210938 105.35867188 26.23046875 106.05859375 C15.75316986 117.37407655 1.12448974 124.51471547 -14.265625 125.40625 C-32.31195085 125.9460767 -48.81409116 122.10467264 -62.4375 109.625 C-75.8201257 96.8390935 -83.87046768 81.52356542 -84.42407227 62.77929688 C-84.51798244 45.52714366 -79.46886131 31.08918609 -68 18 C-67.46761719 17.38511719 -66.93523437 16.77023437 -66.38671875 16.13671875 C-49.7328051 -1.78909284 -22.87680083 -7.81544925 0 0 Z " fill="#E9F6FE" transform="translate(156,315)"/>
<path d="M0 0 C5.93533277 3.72708737 9.08623554 8.72503908 12 15 C12.34655073 15.71563457 12.69310146 16.43126913 13.05015373 17.16858959 C14.22489141 20.67038205 14.27098008 23.90051714 14.24050903 27.54866028 C14.24221788 28.30022248 14.24392673 29.05178469 14.24568737 29.82612151 C14.24897662 32.33966361 14.23798796 34.85293764 14.22705078 37.36645508 C14.22648654 39.17012526 14.22680347 40.9737959 14.22793579 42.77746582 C14.22850982 47.67168199 14.21674734 52.5658002 14.20278788 57.4599936 C14.19028892 62.57559351 14.18911067 67.69119565 14.18673706 72.80680847 C14.18051984 82.49293068 14.16410573 92.17900776 14.14403808 101.8651101 C14.12168662 112.89282128 14.11068754 123.92053462 14.10064721 134.94826281 C14.07973974 157.63220023 14.04455903 180.31609759 14 203 C6.24614942 203.09272074 -1.50757106 203.16377508 -9.26183701 203.20724869 C-12.86258286 203.22811513 -16.46294916 203.25641421 -20.06347656 203.30175781 C-23.53887913 203.34525125 -27.01391688 203.36914421 -30.48957062 203.37950897 C-32.45945784 203.39048615 -34.42919847 203.421707 -36.39886475 203.45318604 C-38.20027924 203.45363922 -38.20027924 203.45363922 -40.03808594 203.45410156 C-41.09509705 203.46298401 -42.15210815 203.47186646 -43.2411499 203.48101807 C-46 203 -46 203 -48.34087372 201.40754032 C-50.58756046 198.14739734 -50.50320183 195.9724554 -50.50793457 192.0252533 C-50.51417453 191.32314226 -50.5204145 190.62103123 -50.52684355 189.8976441 C-50.54279973 187.54462109 -50.53015956 185.19263032 -50.51757812 182.83959961 C-50.52299846 181.15243933 -50.53012061 179.46528378 -50.53881836 177.77813721 C-50.5570751 173.19295326 -50.54997196 168.60812883 -50.53730202 164.02293849 C-50.52717488 159.21942981 -50.53656798 154.41595191 -50.54284668 149.61244202 C-50.55012883 141.53787722 -50.54052565 133.46345862 -50.52148438 125.38891602 C-50.49976609 116.07198492 -50.50672792 106.75540465 -50.52879 97.43848222 C-50.54698953 89.43062221 -50.54947857 81.42286738 -50.53903532 73.41499335 C-50.53281871 68.63649194 -50.53191304 63.85815489 -50.54518127 59.07966423 C-50.55680364 54.5790978 -50.54859832 50.07897915 -50.52560425 45.57846069 C-50.52034884 43.93343916 -50.52177614 42.28837946 -50.53065491 40.64337349 C-50.59717386 27.05799531 -48.70821522 16.16959574 -39 6 C-26.9837367 -5.47110202 -14.69949141 -7.55973844 0 0 Z " fill="#FEC150" transform="translate(154,45)"/>
<path d="M0 0 C16.6705733 13.1975372 27.93416347 34.73237117 30.78466797 55.82177734 C32.24615462 70.6056593 31.4900556 84.83564699 27 99 C26.649375 100.12277344 26.29875 101.24554688 25.9375 102.40234375 C20.94207052 116.71216778 12.70239789 128.43481234 2 139 C1.19820312 139.80050781 0.39640625 140.60101563 -0.4296875 141.42578125 C-11.07407322 151.52922278 -23.15325198 158.3991636 -37 163 C-38.01449219 163.3403125 -39.02898437 163.680625 -40.07421875 164.03125 C-64.91159644 170.76258448 -91.70467837 165.99879605 -114 154 C-121.24210715 149.55478411 -132.12726201 142.74547598 -136 135 C-134.92363281 135.26554688 -133.84726563 135.53109375 -132.73828125 135.8046875 C-105.46015272 142.44992351 -82.79827522 141.99567314 -56.12451172 133.65283203 C-53.99780926 132.99932682 -51.86305348 132.38433669 -49.72265625 131.77734375 C-32.43921407 126.79614234 -19.2348163 117.23705429 -9.63671875 101.80859375 C-6.11216937 95.35965046 -4.21920674 88.48049295 -2.26171875 81.44140625 C-1.26442615 77.8622426 -0.14350579 74.34056805 1.02856445 70.81542969 C8.40601921 48.39059128 7.0207036 26.53463346 1 4 C0.66404986 2.6673236 0.32963862 1.33425158 0 0 Z " fill="#FEC251" transform="translate(201,306)"/>
<path d="M0 0 C7.2709878 -0.48473252 7.2709878 -0.48473252 10.23242188 1.484375 C12.72416737 5.0306382 12.57383804 8.31959199 12.53125 12.5 C12.5350769 13.33152588 12.53890381 14.16305176 12.54284668 15.01977539 C12.5455668 16.78158781 12.53819852 18.54344055 12.52148438 20.30517578 C12.50029085 22.96351845 12.52116752 25.61909112 12.546875 28.27734375 C12.56295665 37.84823195 11.99735064 46.12751467 8 55 C7.50757813 56.09957031 7.01515625 57.19914062 6.5078125 58.33203125 C-1.64587729 72.95800023 -13.19117982 81.71136715 -29.12992191 87.04795647 C-33.43428468 88.10683452 -37.21973302 88.27352273 -41.62437439 88.24050903 C-42.8890382 88.24307231 -42.8890382 88.24307231 -44.17925078 88.24568737 C-46.9906007 88.24896883 -49.80170936 88.23800077 -52.61303711 88.22705078 C-54.63374832 88.22648638 -56.65445993 88.2268038 -58.6751709 88.22793579 C-64.15189048 88.22850916 -69.6285223 88.21675728 -75.10522151 88.20278788 C-80.83207042 88.19027799 -86.55892139 88.18910981 -92.28578186 88.18673706 C-103.12639572 88.18052306 -113.96696919 88.16411329 -124.80756527 88.14403808 C-137.15089703 88.12167662 -149.49423073 88.11068502 -161.8375777 88.10064721 C-187.22507418 88.07974702 -212.61253483 88.04457256 -238 88 C-234.16210711 85.44140474 -230.07452414 83.60404984 -225.91015625 81.6328125 C-222.96497379 80.20314082 -222.96497379 80.20314082 -221.24649811 77.92912388 C-218.15630568 75.27549868 -216.1852766 75.50052057 -212.14587402 75.50120544 C-211.11214181 75.49312861 -211.11214181 75.49312861 -210.05752611 75.48488861 C-207.74827534 75.4716146 -205.44008706 75.48676486 -203.13085938 75.50170898 C-201.47487906 75.49788579 -199.81890207 75.49226675 -198.16293335 75.48498535 C-194.59537791 75.47302513 -191.02811674 75.47353189 -187.46055603 75.48357964 C-181.81120222 75.4991421 -176.16215032 75.48545876 -170.51281738 75.46754456 C-159.52834722 75.43670101 -148.54396896 75.43522281 -137.5594635 75.43719482 C-123.60692869 75.43858656 -109.65446563 75.42811258 -95.70198298 75.3886171 C-90.0954034 75.37374089 -84.48909166 75.37391182 -78.88250828 75.38609493 C-75.37908783 75.39083326 -71.87576807 75.38324318 -68.37236404 75.37255096 C-66.75839282 75.37016115 -65.14440418 75.37282179 -63.53045273 75.38115883 C-45.68122516 75.46777645 -30.43846998 71.98862963 -17.18359375 59.28515625 C-4.47733539 45.98790913 -0.65553023 30.80319101 -0.3125 12.75 C-0.27833984 11.51636719 -0.24417969 10.28273438 -0.20898438 9.01171875 C-0.12748552 6.00790362 -0.05802244 3.00434445 0 0 Z " fill="#4664E8" transform="translate(460,384)"/>
<path d="M0 0 C4.19911597 -0.12383963 8.39725816 -0.21444607 12.59765625 -0.2746582 C14.02557901 -0.29976347 15.45337375 -0.33385587 16.88085938 -0.37719727 C18.93651918 -0.43803678 20.99047753 -0.46624551 23.046875 -0.48828125 C24.90070801 -0.52755737 24.90070801 -0.52755737 26.79199219 -0.56762695 C30 0 30 0 32.18457031 1.84301758 C39.06371336 13.80565861 38.54623482 25.29818039 38.45410156 38.72924805 C38.45297212 41.03625977 38.45360883 43.34327293 38.45587158 45.65028381 C38.45701587 51.88923001 38.43355243 58.12786651 38.40557575 64.36674094 C38.38051467 70.89566702 38.37821638 77.42460075 38.37347412 83.9535675 C38.36313358 94.90423936 38.3375088 105.85480316 38.30175781 116.80541992 C38.26498821 128.07982827 38.23670076 139.35420583 38.21972656 150.62866211 C38.21867567 151.32472912 38.21762477 152.02079612 38.21654204 152.73795607 C38.21132153 156.23025157 38.20626678 159.72254729 38.20129442 163.21484315 C38.15989176 192.14330351 38.08919619 221.07164903 38 250 C36.56068883 249.54738642 35.12361001 249.08767021 33.6875 248.625 C32.88699219 248.36976563 32.08648437 248.11453125 31.26171875 247.8515625 C29 247 29 247 26 245 C25.7023333 242.0863572 25.60201177 239.38440193 25.62818909 236.46800232 C25.62436452 235.57426204 25.62053996 234.68052177 25.6165995 233.75969845 C25.60726839 230.74646268 25.61933501 227.73368088 25.63110352 224.72045898 C25.62863712 222.56730457 25.62480036 220.41415135 25.61968994 218.26100159 C25.61133218 213.61413526 25.61217643 208.96739138 25.61987495 204.32052422 C25.63142952 196.97095415 25.61931796 189.62154252 25.60325623 182.27198792 C25.56700815 164.0096839 25.56082979 145.74738308 25.56335449 127.48504639 C25.56506577 113.30754461 25.55793018 99.13017166 25.52337593 84.95270592 C25.50658155 77.6492823 25.50837816 70.3461726 25.52419865 63.04275024 C25.53000122 58.49167515 25.51924455 53.94074839 25.50395203 49.38969994 C25.50022962 47.28264181 25.50332277 45.17555866 25.51382256 43.06852341 C25.5272283 40.18560301 25.5159535 37.30376088 25.49879456 34.42088318 C25.50860133 33.59245437 25.51840811 32.76402555 25.52851206 31.91049284 C25.4267972 23.61185681 22.04329345 16.37597049 16.98046875 9.85546875 C13.68630758 6.76922308 9.79211499 5.0661348 5.70703125 3.2265625 C3 2 3 2 0 0 Z " fill="#62A2F8" transform="translate(142,40)"/>
<path d="M0 0 C3.38619412 1.25141957 4.86304165 2.04456247 6.875 5.0625 C7.20195874 7.82055517 7.06130777 10.26788347 6.875 13.0625 C7.7 13.206875 8.525 13.35125 9.375 13.5 C15.08575868 16.04944584 19.3944161 20.96327131 22.08984375 26.60546875 C23.58065244 31.27073574 23.44879757 35.37696963 21.875 40 C19.31378653 42.64125139 17.47084594 42.87341688 13.91015625 43.3125 C11.09591907 42.96679716 9.88404018 42.04594731 7.875 40.0625 C6.9157909 37.51149994 6.37437159 34.99718456 5.78125 32.33984375 C5.06762001 29.94422292 5.06762001 29.94422292 3.0078125 28.7421875 C-0.27736879 27.6952616 -2.8204433 28.26695857 -6.125 29.0625 C-8.22864211 32.21796316 -8.38911176 32.62337261 -7.9375 36.125 C-7.86144531 36.81722656 -7.78539062 37.50945312 -7.70703125 38.22265625 C-7.2113543 40.457038 -7.2113543 40.457038 -4.125 42.0625 C-2.3855269 42.41150256 -0.63275078 42.696914 1.125 42.9375 C10.1936786 44.51258628 15.54982644 48.51733323 20.875 56.0625 C23.73012897 61.95298202 23.88873388 68.22609393 22.22265625 74.53125 C20.00832261 80.08133946 16.67295498 84.47474348 11.875 88.0625 C8.9375 89 8.9375 89 6.875 89.0625 C6.9575 90.114375 7.04 91.16625 7.125 92.25 C6.83392025 96.68896623 6.16240903 98.12113402 2.875 101.0625 C-0.0625 102.125 -0.0625 102.125 -3.125 102.0625 C-5.87216387 100.29210551 -7.65645922 98.99958156 -9.125 96.0625 C-9.16522391 93.7295134 -9.16820247 91.39543334 -9.125 89.0625 C-9.7025 88.959375 -10.28 88.85625 -10.875 88.75 C-15.83589376 87.23417135 -19.77015247 83.16627714 -22.53125 78.87890625 C-24.98343647 73.82565057 -25.96124716 69.63748109 -25.125 64.0625 C-23.125 61 -23.125 61 -20.125 59.0625 C-17.23522736 58.74766096 -14.86253494 59.10227533 -12.125 60.0625 C-8.42377672 63.12558133 -7.47368525 68.5860128 -6.125 73.0625 C-2.86386535 73.68964128 -0.03972643 74.23100224 3.25 73.625 C5.59214477 71.37293772 5.62738274 69.18306826 5.9921875 66.03515625 C6.02205795 63.73667282 6.02205795 63.73667282 3.875 61.0625 C1.34248315 60.39789731 -1.1221639 59.86276288 -3.6875 59.375 C-12.16693037 57.49351997 -17.61994162 54.30568322 -22.55078125 46.9296875 C-25.8406498 40.62127976 -26.37832397 33.72718922 -24.53515625 26.8671875 C-22.04606064 21.01723929 -17.29037231 16.63925873 -12.125 13.0625 C-11.135 13.0625 -10.145 13.0625 -9.125 13.0625 C-9.24875 11.845625 -9.3725 10.62875 -9.5 9.375 C-9.5 6.85761544 -9.41075003 5.48914068 -8 3.3828125 C-5.38134646 0.96874127 -3.55336431 0.07106729 0 0 Z " fill="#FDDF7E" transform="translate(305.125,84.9375)"/>
<path d="M0 0 C21.16618614 -0.06942761 42.33234488 -0.12297398 63.49862194 -0.15543652 C73.32635053 -0.17090963 83.15400709 -0.19200767 92.98168945 -0.22631836 C101.5468554 -0.25620708 110.11196919 -0.27557177 118.67718583 -0.28226548 C123.21299432 -0.28617863 127.74865359 -0.29538434 132.28441429 -0.31719017 C136.55334057 -0.33754698 140.8220561 -0.34383544 145.09102631 -0.33932304 C146.65795601 -0.34014861 148.22489273 -0.34611912 149.79178047 -0.35761642 C151.93165153 -0.37254836 154.07072751 -0.36895163 156.21061707 -0.36076355 C158.00673069 -0.36491162 158.00673069 -0.36491162 159.83912945 -0.36914349 C163.35303861 0.04122975 165.23325716 0.81525586 168 3 C169.17180914 6.95485583 169.4048133 9.06892942 167.75 12.875 C166 15 166 15 163 16 C160.89459031 16.09183254 158.78632012 16.12193641 156.6789093 16.12025452 C156.03522831 16.12110894 155.39154731 16.12196337 154.72836083 16.12284368 C152.56798387 16.12449294 150.40768428 16.11898617 148.24731445 16.11352539 C146.70009361 16.11324337 145.15287262 16.11340154 143.60565186 16.1139679 C139.40140645 16.1142553 135.19718947 16.10836769 130.99295068 16.10139394 C126.60070454 16.09515101 122.20845778 16.09455585 117.81620789 16.09336853 C109.49709078 16.09025799 101.17798678 16.08204833 92.85887545 16.07201904 C83.38861301 16.06084931 73.91834995 16.05534528 64.44808257 16.05032361 C44.96538073 16.0398655 25.4826919 16.02207044 6 16 C4.02 10.72 2.04 5.44 0 0 Z " fill="#E9F6FE" transform="translate(223,336)"/>
<path d="M0 0 C1.21189499 -0.00554901 2.42378998 -0.01109802 3.67240906 -0.01681519 C6.98903489 -0.0265929 10.30409834 -0.01402681 13.62055779 0.00946999 C17.09489473 0.02960797 20.56919813 0.02369791 24.0435791 0.0213623 C29.87766191 0.02141585 35.71142052 0.04115355 41.54541016 0.07324219 C48.28528902 0.11013385 55.0247433 0.11891746 61.76470995 0.11194468 C68.25475312 0.10563404 74.74465106 0.11640428 81.23466492 0.13591003 C83.99372938 0.14407354 86.75271952 0.14679553 89.51179504 0.1452179 C93.3660937 0.14417378 97.22000933 0.16837667 101.07421875 0.1953125 C102.21722946 0.1923819 103.36024017 0.18945129 104.53788757 0.18643188 C106.11501274 0.20345657 106.11501274 0.20345657 107.72399902 0.2208252 C108.63468895 0.22455391 109.54537888 0.22828262 110.48366547 0.23212433 C113.63035627 0.70424312 115.50683794 1.70225684 118.03710938 3.61523438 C119.20891851 7.57009021 119.44192267 9.68416379 117.78710938 13.49023438 C116.03710938 15.61523438 116.03710938 15.61523438 113.03710938 16.61523438 C111.34608658 16.71143945 109.65152718 16.75016286 107.95777893 16.75567627 C106.90766632 16.76138641 105.85755371 16.76709656 104.77561951 16.77297974 C103.6238472 16.7740976 102.47207489 16.77521545 101.28540039 16.77636719 C99.46558655 16.78381454 99.46558655 16.78381454 97.60900879 16.79141235 C94.28049553 16.80352057 90.95204508 16.8109787 87.62351727 16.81542301 C85.54416905 16.81835493 83.46482633 16.82245991 81.38548088 16.82692719 C74.88000723 16.84059747 68.37454616 16.85026708 61.86905915 16.85412908 C54.35841279 16.85861235 46.84794819 16.87617451 39.3373571 16.90512967 C33.53175818 16.92673538 27.72621045 16.93683272 21.92057174 16.93817019 C18.45291813 16.9392188 14.98543548 16.94513839 11.51782417 16.96298981 C7.65122715 16.98250872 3.78485807 16.97818595 -0.08178711 16.97167969 C-1.23153519 16.98089447 -2.38128326 16.99010925 -3.56587219 16.99960327 C-5.14527084 16.99124954 -5.14527084 16.99124954 -6.75657654 16.98272705 C-7.67078589 16.98419361 -8.58499525 16.98566017 -9.52690792 16.98717117 C-12.44548037 16.5415504 -13.81263846 15.60338071 -15.96289062 13.61523438 C-16.74804688 11.74804688 -16.74804688 11.74804688 -17.02539062 9.74023438 C-17.14011719 9.0828125 -17.25484375 8.42539062 -17.37304688 7.74804688 C-16.86204215 5.09082228 -15.74040338 3.55021332 -13.79486084 1.69447327 C-9.69363695 -0.72161423 -4.6149943 -0.05355138 0 0 Z " fill="#E9F6FE" transform="translate(232.962890625,295.384765625)"/>
<path d="M0 0 C1.70079964 -0.00832352 1.70079964 -0.00832352 3.43595886 -0.01681519 C7.18364735 -0.02862501 10.93013045 -0.00432053 14.67773438 0.02148438 C17.28177841 0.02319516 19.88582417 0.02313013 22.48986816 0.0213623 C27.94733302 0.02141584 33.40445119 0.04114814 38.86181641 0.07324219 C45.16545045 0.11013354 51.46863051 0.11891739 57.77235842 0.11194468 C63.84380714 0.10563272 69.91507565 0.11662028 75.98649597 0.13591003 C78.56690207 0.14294482 81.14732188 0.14606399 83.72773743 0.1452179 C87.33306708 0.14701417 90.93775069 0.16838292 94.54296875 0.1953125 C95.61117355 0.1923819 96.67937836 0.18945129 97.779953 0.18643188 C107.10318372 0.2939579 107.10318372 0.2939579 110.77148438 3.61523438 C111.94329351 7.57009021 112.17629767 9.68416379 110.52148438 13.49023438 C108.77148438 15.61523438 108.77148438 15.61523438 105.77148438 16.61523438 C104.18179564 16.7108453 102.5884166 16.75013451 100.99586487 16.75567627 C99.5216658 16.76424149 99.5216658 16.76424149 98.01768494 16.77297974 C96.94071854 16.7740976 95.86375214 16.77521545 94.75415039 16.77636719 C93.05137939 16.78381454 93.05137939 16.78381454 91.31420898 16.79141235 C87.55126342 16.8060425 83.78835998 16.81283673 80.02539062 16.81835938 C77.4160919 16.82410925 74.8067932 16.829867 72.19749451 16.83563232 C67.42389864 16.84520158 62.65031189 16.85109996 57.87670761 16.85412908 C50.85054015 16.85861219 43.824567 16.87617395 36.79845864 16.90512967 C30.71211845 16.92934207 24.62585858 16.93707289 18.53947258 16.93880463 C15.94984821 16.9418375 13.36022479 16.94988723 10.77063179 16.96298981 C7.15300774 16.97999014 3.53586036 16.97818475 -0.08178711 16.97167969 C-1.15672928 16.98089447 -2.23167145 16.99010925 -3.33918762 16.99960327 C-4.32480682 16.99403412 -5.31042603 16.98846497 -6.32591248 16.98272705 C-7.18112708 16.98419361 -8.03634169 16.98566017 -8.91747189 16.98717117 C-11.75234679 16.53092957 -13.12688492 15.53725857 -15.22851562 13.61523438 C-16.01367188 11.74804688 -16.01367188 11.74804688 -16.29101562 9.74023438 C-16.40574219 9.0828125 -16.52046875 8.42539062 -16.63867188 7.74804688 C-14.99964707 -0.77488212 -6.79994156 -0.08443071 0 0 Z " fill="#E9F6FE" transform="translate(280.228515625,255.384765625)"/>
<path d="M0 0 C1.05583786 -0.00554901 2.11167572 -0.01109802 3.19950867 -0.01681519 C6.68750475 -0.02862007 10.17420425 -0.00432607 13.66210938 0.02148438 C16.08679139 0.0231953 18.51147525 0.02312999 20.93615723 0.0213623 C26.01702579 0.02301604 31.0974534 0.04172489 36.17822266 0.07324219 C42.69189425 0.11291937 49.20498813 0.11728764 55.71875763 0.10977936 C60.72533462 0.10671023 65.73178167 0.11882826 70.73832703 0.13591003 C73.140103 0.14294277 75.54189369 0.14606424 77.94367981 0.1452179 C81.29996369 0.147015 84.65555463 0.16839058 88.01171875 0.1953125 C89.00511765 0.1923819 89.99851654 0.18945129 91.02201843 0.18643188 C99.74763435 0.29445433 99.74763435 0.29445433 103.50585938 3.61523438 C104.67766851 7.57009021 104.91067267 9.68416379 103.25585938 13.49023438 C101.50585938 15.61523438 101.50585938 15.61523438 98.50585938 16.61523438 C97.01751351 16.71017852 95.5253115 16.75010193 94.03395081 16.75567627 C92.66072159 16.76424149 92.66072159 16.76424149 91.25975037 16.77297974 C90.25758987 16.7740976 89.25542938 16.77521545 88.22290039 16.77636719 C87.16574829 16.78133209 86.10859619 16.786297 85.01940918 16.79141235 C81.51618809 16.80603879 78.01301225 16.81283611 74.50976562 16.81835938 C72.07982888 16.82410956 69.64989215 16.8298673 67.21995544 16.83563232 C62.12311593 16.84614308 57.02629219 16.85198555 51.92944336 16.85546875 C45.39102266 16.86095963 38.85280957 16.88500021 32.31445408 16.9134407 C27.29509364 16.93203993 22.27578352 16.9372712 17.25639153 16.93880463 C14.84539591 16.94183682 12.43440131 16.94988431 10.02343941 16.96298981 C6.65486842 16.97999644 3.28680908 16.97818326 -0.08178711 16.97167969 C-1.08192337 16.98089447 -2.08205963 16.99010925 -3.11250305 16.99960327 C-4.03080902 16.99403412 -4.94911499 16.98846497 -5.89524841 16.98272705 C-6.69146827 16.98419361 -7.48768812 16.98566017 -8.30803585 16.98717117 C-11.05872921 16.5191771 -12.44236018 15.4714497 -14.49414062 13.61523438 C-15.27929688 11.74804688 -15.27929688 11.74804688 -15.55664062 9.74023438 C-15.67136719 9.0828125 -15.78609375 8.42539063 -15.90429688 7.74804688 C-14.31908641 -0.49504756 -6.63412255 -0.08857468 0 0 Z " fill="#E9F6FE" transform="translate(231.494140625,215.384765625)"/>
<path d="M0 0 C0.98355469 0.32871094 1.96710938 0.65742188 2.98046875 0.99609375 C10.12333288 3.66658241 21.40746328 8.81492657 25 16 C21.54744314 14.657339 18.21487521 13.16264917 14.875 11.5625 C-1.02763161 4.44317618 -18.0069304 3.3443488 -34.45703125 9.53125 C-51.19622012 16.47053888 -62.45182447 27.14710953 -70.25 43.5 C-70.85948687 44.98956488 -71.44253378 46.49019565 -72 48 C-72.2990625 48.80566406 -72.598125 49.61132812 -72.90625 50.44140625 C-75.52739706 58.58395104 -75.33703083 66.56536002 -75 75 C-74.99226563 75.82371094 -74.98453125 76.64742188 -74.9765625 77.49609375 C-74.50215786 87.14840344 -69.49770678 97.23642708 -64 105 C-64.33 105.66 -64.66 106.32 -65 107 C-77.90554932 94.03709269 -84.3218761 78.59914216 -84.4375 60.3125 C-84.20457888 44.01772632 -78.77309262 30.29511895 -68 18 C-67.46761719 17.38511719 -66.93523437 16.77023437 -66.38671875 16.13671875 C-49.7328051 -1.78909284 -22.87680083 -7.81544925 0 0 Z " fill="#C7E5FC" transform="translate(156,315)"/>
<path d="M0 0 C3.21142855 2.37366458 4.71584605 3.93442268 5.75 7.8125 C3.60872644 16.91291262 -7.88237859 25.0343429 -14.38110352 31.51147461 C-16.32881803 33.45377265 -18.2710593 35.4014314 -20.21289062 37.34960938 C-21.45019983 38.58625875 -22.68781868 39.82259842 -23.92578125 41.05859375 C-24.50596512 41.64080185 -25.08614899 42.22300995 -25.68391418 42.82286072 C-30.62886669 47.73883175 -30.62886669 47.73883175 -34.625 48.5 C-39.83455179 47.72821455 -42.34705039 44.62879787 -46 41 C-47.0480008 39.97768384 -48.09619042 38.95556122 -49.14453125 37.93359375 C-58.80902346 28.43232408 -58.80902346 28.43232408 -59.375 24.1875 C-59 21 -59 21 -56.875 18.125 C-54 16 -54 16 -51.1875 15.25 C-46.3123391 16.39709668 -43.48664978 19.53560543 -40 23 C-38.7625 24.2065625 -38.7625 24.2065625 -37.5 25.4375 C-37.005 25.953125 -36.51 26.46875 -36 27 C-32.01295714 25.40247219 -29.3698311 22.60944346 -26.4296875 19.58984375 C-25.64623459 18.79858849 -25.64623459 18.79858849 -24.84695435 17.99134827 C-23.18479666 16.3114287 -21.52950195 14.62495728 -19.875 12.9375 C-18.21249027 11.24736984 -16.54854046 9.5587228 -14.88162231 7.87294006 C-13.8460278 6.82509029 -12.81311817 5.77457886 -11.78317261 4.72117615 C-7.82036622 0.70300231 -5.76124198 -0.67779317 0 0 Z " fill="#FD9E3E" transform="translate(163,352)"/>
<path d="M0 0 C0.80232056 -0.00004028 1.60464111 -0.00008057 2.43127441 -0.00012207 C4.12239443 0.00522359 5.8135146 0.02276578 7.50439453 0.05175781 C10.08573724 0.09362006 12.66446867 0.09282315 15.24609375 0.0859375 C16.89324721 0.09643096 18.54038728 0.10936992 20.1875 0.125 C21.3392572 0.12530212 21.3392572 0.12530212 22.51428223 0.12561035 C27.00556641 0.22428421 30.08499362 0.69725983 33.59375 3.59375 C34.76555914 7.54860583 34.9985633 9.66267942 33.34375 13.46875 C31.59375 15.59375 31.59375 15.59375 28.59375 16.59375 C25.83664043 16.71468389 23.10557638 16.78187326 20.34765625 16.796875 C19.13637306 16.80542511 19.13637306 16.80542511 17.90061951 16.81414795 C16.19344388 16.82358834 14.48625011 16.83012812 12.77905273 16.83398438 C10.16943625 16.8437009 7.56060393 16.8747369 4.95117188 16.90625 C3.29167134 16.91277933 1.63216518 16.91803007 -0.02734375 16.921875 C-0.80661728 16.9342218 -1.58589081 16.9465686 -2.38877869 16.95928955 C-5.67506266 16.9457938 -7.99136563 16.82910765 -10.88085938 15.18994141 C-12.65730202 13.33104544 -13.11884837 12.25184068 -13.46875 9.71875 C-13.58347656 9.06132812 -13.69820313 8.40390625 -13.81640625 7.7265625 C-12.44387172 0.58938296 -6.11332719 -0.13053482 0 0 Z " fill="#E8F6FE" transform="translate(357.40625,215.40625)"/>
<path d="M0 0 C0.68964844 0.39832031 1.37929687 0.79664063 2.08984375 1.20703125 C3.02957031 1.73683594 3.96929687 2.26664062 4.9375 2.8125 C5.85402344 3.33457031 6.77054688 3.85664063 7.71484375 4.39453125 C16.0231319 8.45482427 23.34012298 9.49293508 32.5625 9.6875 C33.66658203 9.72166016 34.77066406 9.75582031 35.90820312 9.79101562 C38.60536703 9.87274786 41.30223643 9.94213826 44 10 C41.09766374 14.11222583 38.47552316 16.11313656 33.9375 18.25 C32.89464844 18.75015625 31.85179687 19.2503125 30.77734375 19.765625 C21.24563718 24.00193903 9.37668822 22.99944197 -0.2265625 19.35546875 C-4.86311406 17.08943581 -8.9544525 14.18631617 -13 11 C-11.6390377 6.91711311 -9.52046678 6.11314183 -5.9375 3.8125 C-4.83277344 3.09707031 -3.72804687 2.38164062 -2.58984375 1.64453125 C-1.73519531 1.10183594 -0.88054687 0.55914062 0 0 Z " fill="#61A2F8" transform="translate(197,450)"/>
<path d="M0 0 C1.26972656 0.00257813 2.53945312 0.00515625 3.84765625 0.0078125 C5.16636719 0.03617188 6.48507813 0.06453125 7.84375 0.09375 C9.16246094 0.09117187 10.48117188 0.08859375 11.83984375 0.0859375 C23.01106169 0.19935088 23.01106169 0.19935088 27.34375 3.59375 C28.51555914 7.54860583 28.7485633 9.66267942 27.09375 13.46875 C25.34375 15.59375 25.34375 15.59375 22.34375 16.59375 C18.21346894 16.82017956 14.08306774 16.82198569 9.94702148 16.83398438 C7.91673966 16.8436998 5.8874667 16.87474209 3.85742188 16.90625 C2.57544922 16.91140625 1.29347656 16.9165625 -0.02734375 16.921875 C-1.20224365 16.9312207 -2.37714355 16.94056641 -3.58764648 16.95019531 C-6.92795458 16.56218912 -8.27640665 15.91743815 -10.65625 13.59375 C-11.44140625 11.7265625 -11.44140625 11.7265625 -11.71875 9.71875 C-11.83347656 9.06132812 -11.94820312 8.40390625 -12.06640625 7.7265625 C-10.85989613 1.45270987 -5.62319549 -0.03445969 0 0 Z " fill="#E8F6FE" transform="translate(227.65625,255.40625)"/>
<path d="M0 0 C0.93714844 -0.00257813 1.87429688 -0.00515625 2.83984375 -0.0078125 C11.66104117 0.11731087 11.66104117 0.11731087 15.5 3.5 C16.67180914 7.45485583 16.9048133 9.56892942 15.25 13.375 C13.5 15.5 13.5 15.5 10.5 16.5 C7.02517506 16.75394579 3.54564065 16.73126084 0.0625 16.75 C-1.36932617 16.7809375 -1.36932617 16.7809375 -2.83007812 16.8125 C-3.75111328 16.81765625 -4.67214844 16.8228125 -5.62109375 16.828125 C-6.4608374 16.8374707 -7.30058105 16.84681641 -8.16577148 16.85644531 C-11.0252817 16.41978755 -12.38411115 15.43640556 -14.5 13.5 C-15.28515625 11.6328125 -15.28515625 11.6328125 -15.5625 9.625 C-15.67722656 8.96757812 -15.79195313 8.31015625 -15.91015625 7.6328125 C-14.31531979 -0.66033708 -6.69368514 -0.20255994 0 0 Z " fill="#E8F5FE" transform="translate(375.5,295.5)"/>
</svg>
